<?xml version="1.0" encoding="UTF-8" standalone="no"?>
<svg width="231px" height="85px" viewBox="0 0 231 85" version="1.1" xmlns="http://www.w3.org/2000/svg" xmlns:xlink="http://www.w3.org/1999/xlink" xmlns:sketch="http://www.bohemiancoding.com/sketch/ns">
    <!-- Generator: Sketch 3.4.2 (15857) - http://www.bohemiancoding.com/sketch -->
    <title>Artboard 34</title>
    <desc>Created with Sketch.</desc>
    <defs></defs>
    <g id="Page-1" stroke="none" stroke-width="1" fill="none" fill-rule="evenodd" sketch:type="MSPage">
        <g id="Artboard-34" sketch:type="MSArtboardGroup">
            <g id="Group" sketch:type="MSLayerGroup" transform="translate(4.000000, 2.000000)">
                <path d="M155.847602,27.1735906 C155.847602,27.1735906 158.165494,14.8235753 158.6,13.0621849 C159.26667,10.3596504 160.233327,8.03250276 161.5,6.08067227 C162.766673,4.12884178 164.466656,2.62745624 166.6,1.57647059 C168.733344,0.525484941 171.533316,0 175,0 C176.533341,0 177.999993,0.0938365966 179.4,0.281512605 C180.800007,0.469188613 182.16666,0.638094487 183.5,0.788235294 L181.6,10.5848739 C180.466661,10.2845923 179.000009,10.1344538 177.2,10.1344538 C175.266657,10.1344538 173.783338,10.4347309 172.75,11.0352941 C171.716661,11.6358573 170.916669,12.4803867 170.35,13.5689076 C169.78333,14.6574284 169.366668,15.9336061 169.1,17.397479 C168.833332,18.8613519 168.500002,20.456574 168.1,22.1831933 L167.252612,27.1735897 L155.847602,27.1735906 Z M150.530681,55.7291558 L161.998646,55.5441266 L157.4,80.4 L146,80.4 L150.530681,55.7291558 Z" id="ff" stroke="#FFFFFF" stroke-width="2" fill="#FFFFFF" sketch:type="MSShapeGroup"></path>
                <g id="R-+-Oval-1-+-Oval-1" transform="translate(0.000000, 2.000000)" stroke="#FFFFFF" sketch:type="MSShapeGroup">
                    <path d="M51.7046385,60.9024124 L40.0575479,39.0373553 L41.9948956,29.9385531 C42.5809884,29.7862313 45.2611577,28.939421 47.7397684,28.0823276 C49.5420859,27.4590937 51.2378303,26.8304226 51.9443859,26.4593748 C53.6226216,25.5780489 55.0344496,24.6243897 56.179912,23.5983686 C57.1655426,22.7038886 58.0246265,21.5989593 58.7571897,20.2835476 C59.489753,18.9681358 59.8560291,17.2055105 59.8560291,14.9956188 C59.8560291,12.9698848 59.3166043,11.2269903 58.2377384,9.76688332 C57.1588726,8.30677629 55.6737894,7.2347318 53.7824444,6.5507177 C52.237402,5.97193654 50.612468,5.62335765 48.9075936,5.5049706 C47.2027192,5.38658354 45.6310616,5.3273909 44.1925739,5.3273909 C43.233582,5.3273909 42.5010298,5.33396786 41.9948952,5.34712198 C41.4887606,5.3602761 24.4012336,5.34712211 24.4012336,5.34712211 L13.323464,59.0683784 L6.21736436,56.4320883 L17.5590229,0.39462156 C17.5590229,0.39462156 35.9212986,0.131540779 38.3187782,0.0789243096 C40.7162578,0.0263078401 42.9272336,0 44.951772,0 C47.2693356,0 49.5202688,0.131539201 51.7046391,0.394621548 C53.8890094,0.657703896 56.0200705,1.22332246 58.0978861,2.09149421 C60.7351137,3.19644006 62.8262174,4.82094919 64.3712598,6.96507033 C65.9163022,9.10919146 66.6888118,11.6281672 66.6888118,14.522073 C66.6888118,18.2578423 65.5233878,21.3687444 63.1925049,23.8548726 C62.4901693,24.6039863 59.9393491,26.607301 56.1799128,28.5742311 C53.2066823,30.1298198 50.6635936,31.0389929 46.8007109,32.567357 L45.5119336,39.0373545 L56.8585272,59.0683784 L51.7046385,60.9024124 Z" id="R" stroke-width="5" fill="#FFFFFF"></path>
                    <ellipse id="Oval-1" stroke-width="7" cx="8.4771332" cy="67.3719823" rx="8.4771332" ry="8.37198229"></ellipse>
                    <ellipse id="Oval-1" stroke-width="7" cx="58.2446018" cy="67.1423352" rx="8.24460182" ry="8.14233524"></ellipse>
                </g>
                <g id="f-+-f-+-Group-+-Oval-28" transform="translate(134.000000, 27.000000)" sketch:type="MSShapeGroup">
                    <g id="f-+-f-+-Group">
                        <g id="Group">
                            <g>
                                <g id="Rectangle-2-+-Oval-7" transform="translate(0.346603, 6.984000)" fill="#FFFFFF">
                                    <path d="M1.77866978,2.88697435 L1.77866978,0 L12.3621732,0 L12.3621732,7.42857143 L1.77866978,7.42857143 L1.77866978,2.88697435 Z" id="Rectangle-2"></path>
                                    <ellipse id="Oval-7" cx="2.22333722" cy="3.71428571" rx="2.22333722" ry="3.71428571"></ellipse>
                                </g>
                                <rect id="Rectangle-1" stroke="#FFFFFF" stroke-width="5" x="10.8223774" y="0" width="70.4093308" height="28"></rect>
                                <g id="Rectangle-2-+-Oval-7" transform="translate(85.721337, 10.984000) scale(-1, 1) translate(-85.721337, -10.984000) translate(79.366949, 6.984000)" fill="#FFFFFF">
                                    <path d="M1.77866978,2.88697435 L1.77866978,0 L12.3621732,0 L12.3621732,7.42857143 L1.77866978,7.42857143 L1.77866978,2.88697435 Z" id="Rectangle-2"></path>
                                    <ellipse id="Oval-7" cx="2.22333722" cy="3.71428571" rx="2.22333722" ry="3.71428571"></ellipse>
                                </g>
                            </g>
                        </g>
                    </g>
                </g>
                <path d="M117.254957,79.4166185 L108.06235,79.4166185 L109.436945,72.9732019 L109.265121,72.8013774 C107.489593,75.2642068 105.270216,77.1828939 102.606924,78.5574963 C99.9436315,79.9320987 97.0656009,80.6193896 93.9727454,80.6193896 C89.5052876,80.6193896 86.2263373,79.5598161 84.1357961,77.4406374 C82.0452549,75.3214587 81,72.4577466 81,68.8494152 C81,68.0475638 81.0286371,67.131176 81.0859122,66.1002242 C81.1431873,65.0692724 81.2577358,64.1528845 81.4295611,63.3510331 L87.3575044,35 L97.1514976,35 L91.481291,62.4059986 C91.3094657,63.1505749 91.1519615,63.866503 91.0087738,64.5538042 C90.865586,65.2411054 90.7939932,65.8997592 90.7939932,66.5297853 C90.7939932,66.8734359 90.8083118,67.4032226 90.8369494,68.1191614 C90.8655869,68.8351001 91.0803653,69.5510281 91.481291,70.2669669 C91.8822167,70.9829057 92.5408705,71.5986038 93.4572721,72.1140797 C94.3736737,72.6295556 95.7482555,72.8872897 97.5810587,72.8872897 C99.4711371,72.8872897 101.203683,72.4720514 102.778748,71.6415624 C104.353813,70.8110735 105.742714,69.7371815 106.945491,68.4198541 C108.148268,67.1025268 109.150567,65.6277151 109.952419,63.9953747 C110.75427,62.3630344 111.327012,60.7163999 111.670663,59.055422 L116.653572,35 L126.447565,35 L117.254957,79.4166185 Z" id="u" stroke="#FFFFFF" fill="#FFFFFF" sketch:type="MSShapeGroup"></path>
                <path d="M196.803683,27.4173462 C196.803683,27.4173462 199.204941,14.6636672 199.6,13.0621849 C200.26667,10.3596504 201.233327,8.03250276 202.5,6.08067227 C203.766673,4.12884178 205.466656,2.62745624 207.6,1.57647059 C209.733344,0.525484941 212.533316,0 216,0 C217.533341,0 218.999993,0.0938365966 220.4,0.281512605 C221.800007,0.469188613 223.16666,0.638094487 224.5,0.788235294 L222.6,10.5848739 C221.466661,10.2845923 220.000009,10.1344538 218.2,10.1344538 C216.266657,10.1344538 214.783338,10.4347309 213.75,11.0352941 C212.716661,11.6358573 211.916669,12.4803867 211.35,13.5689076 C210.78333,14.6574284 210.366668,15.9336061 210.1,17.397479 C209.833332,18.8613519 209.500002,20.456574 209.1,22.1831933 L208.166076,27.417347 L196.803683,27.4173462 Z M191.549572,55.6262883 L202.981252,55.6381391 L198.4,80.4 L187,80.4 L191.549572,55.6262883 Z" id="ff" stroke="#FFFFFF" stroke-width="2" fill="#FFFFFF" sketch:type="MSShapeGroup"></path>
            </g>
            <g id="Path-262-+-Path-262" sketch:type="MSLayerGroup" transform="translate(168.000000, 38.000000)" stroke="#FFFFFF" stroke-width="3">
                <path d="M0,0 L9.08774625,4.50049587 L0.215905876,9" id="Path-262" sketch:type="MSShapeGroup"></path>
                <path d="M23.1,0 L32.1877462,4.50049587 L23.3159059,9" id="Path-262" sketch:type="MSShapeGroup" transform="translate(27.643873, 4.500000) scale(-1, 1) translate(-27.643873, -4.500000) "></path>
            </g>
        </g>
    </g>
</svg>